HIERARCHY
ROOT Pelvis
{
	OFFSET 0.000000 0.000000 0.000000
	CHANNELS 6 Xposition Yposition Zposition Xrotation Yrotation Zrotation
	JOINT LeftUpLeg_virtual
	{
		OFFSET 0.000000 0.000000 0.000000
		CHANNELS 3 Xrotation Yrotation Zrotation
		JOINT LeftUpLeg
		{
			OFFSET 18.735201 -5.666702 -4.541200
			CHANNELS 3 Xrotation Yrotation Zrotation
			JOINT LeftLeg
			{
				OFFSET -0.021200 -31.938179 0.493100
				CHANNELS 3 Xrotation Yrotation Zrotation
				JOINT LeftFoot
				{
					OFFSET 0.021200 -31.938179 -4.336299
					CHANNELS 3 Xrotation Yrotation Zrotation
					JOINT LeftToeBase
					{
						OFFSET 0.943001 -26.722000 15.023500
						CHANNELS 3 Xrotation Yrotation Zrotation
						End Site
						{
							OFFSET 0 0 0
						}
					}
				}
			}
		}
	}
	JOINT RightUpLeg_virtual
	{
		OFFSET 0.000000 0.000000 0.000000
		CHANNELS 3 Xrotation Yrotation Zrotation
		JOINT RightUpLeg
		{
			OFFSET -18.735201 -5.666702 -4.541200
			CHANNELS 3 Xrotation Yrotation Zrotation
			JOINT RightLeg
			{
				OFFSET 0.018946 -31.938133 0.493100
				CHANNELS 3 Xrotation Yrotation Zrotation
				JOINT RightFoot
				{
					OFFSET -0.018946 -31.938126 -4.336299
					CHANNELS 3 Xrotation Yrotation Zrotation
					JOINT RightToeBase
					{
						OFFSET -0.943001 -26.722004 15.023500
						CHANNELS 3 Xrotation Yrotation Zrotation
						End Site
						{
							OFFSET 0 0 0
						}
					}
				}
			}
		}
	}
	JOINT Hips_virtual
	{
		OFFSET 0.000000 0.000000 0.000000
		CHANNELS 3 Xrotation Yrotation Zrotation
		JOINT Hips
		{
			OFFSET -0.000000 -0.000000 -0.000000
			CHANNELS 3 Xrotation Yrotation Zrotation
			JOINT Spine
			{
				OFFSET 0.000000 10.199997 -0.299500
				CHANNELS 3 Xrotation Yrotation Zrotation
				JOINT Spine1
				{
					OFFSET 0.000000 11.900002 -1.516600
					CHANNELS 3 Xrotation Yrotation Zrotation
					JOINT Spine2
					{
						OFFSET 0.000000 13.600006 -2.842500
						CHANNELS 3 Xrotation Yrotation Zrotation
						JOINT Neck_virtual
						{
							OFFSET 0.000000 0.000000 0.000000
							CHANNELS 3 Xrotation Yrotation Zrotation
							JOINT Neck
							{
								OFFSET 0.000000 9.624100 -2.890100
								CHANNELS 3 Xrotation Yrotation Zrotation
								JOINT Head
								{
									OFFSET 0.000000 14.068802 -1.351900
									CHANNELS 3 Xrotation Yrotation Zrotation
									End Site
									{
										OFFSET 0 0 0
									}
								}
							}
						}
						JOINT LeftShoulder_virtual
						{
							OFFSET 0.000000 0.000000 0.000000
							CHANNELS 3 Xrotation Yrotation Zrotation
							JOINT LeftShoulder
							{
								OFFSET 15.263000 10.923401 -0.547700
								CHANNELS 3 Xrotation Yrotation Zrotation
								JOINT LeftArm
								{
									OFFSET 25.438599 -2.830597 -13.032500
									CHANNELS 3 Xrotation Yrotation Zrotation
									JOINT LeftForeArm
									{
										OFFSET 29.960503 0.000000 0.000000
										CHANNELS 3 Xrotation Yrotation Zrotation
										JOINT LeftHand
										{
											OFFSET 27.849251 0.000000 0.000000
											CHANNELS 3 Xrotation Yrotation Zrotation
											End Site
											{
												OFFSET 0 0 0
											}
										}
									}
								}
							}
						}
						JOINT RightShoulder_virtual
						{
							OFFSET 0.000000 0.000000 0.000000
							CHANNELS 3 Xrotation Yrotation Zrotation
							JOINT RightShoulder
							{
								OFFSET -15.263000 10.923401 -0.547700
								CHANNELS 3 Xrotation Yrotation Zrotation
								JOINT RightArm
								{
									OFFSET -25.438599 -2.830597 -13.032500
									CHANNELS 3 Xrotation Yrotation Zrotation
									JOINT RightForeArm
									{
										OFFSET -29.960503 0.000000 0.000000
										CHANNELS 3 Xrotation Yrotation Zrotation
										JOINT RightHand
										{
											OFFSET -27.849251 0.000000 0.000000
											CHANNELS 3 Xrotation Yrotation Zrotation
											End Site
											{
												OFFSET 0 0 0
											}
										}
									}
								}
							}
						}
					}
				}
			}
		}
	}
}
MOTION
Frames: 8
Frame Time: 0.03333333
1.081413 94.721832 2.059990 0.000000 0.000000 0.000000 11.152989 -2.687431 -1.986621 -25.782274 11.699840 13.952124 34.028378 -3.116054 -0.462961 -13.923344 -2.802187 -7.708701 0.000000 0.000000 0.000000 6.419498 8.139442 4.169327 -20.196458 -3.707804 -8.998708 27.869120 1.740224 -3.032666 -19.450333 -0.803662 6.864346 0.000000 0.000000 0.000000 -0.127445 0.265950 0.505302 0.499221 9.116752 -0.956784 5.965880 0.134795 1.237600 1.760197 0.100855 0.437343 0.000000 0.000000 0.000000 0.443201 -0.173655 -0.067691 -1.605546 -0.251180 -0.113075 0.000000 0.000000 0.000000 0.521338 -0.007246 -0.356741 -0.914995 -6.695201 -7.693555 2.783926 -2.291237 -57.608261 3.174931 -33.687634 -5.706829 0.000000 0.000000 0.000000 1.293542 -0.413966 0.029286 -0.400507 6.280105 5.665430 12.640927 6.600370 52.410220 8.263260 36.954052 2.469981 0.000000 0.000000 0.000000 
1.409428 94.541222 1.566013 0.000000 0.000000 0.000000 11.226475 -3.299932 -2.013861 -25.735091 11.602109 13.855334 32.325527 -3.728412 -0.598200 -15.271623 -3.277183 -8.290653 0.000000 0.000000 0.000000 6.386580 6.763775 4.534387 -20.289798 -4.179423 -8.729388 28.395395 1.800528 -3.603457 -19.073402 -0.375189 5.887621 0.000000 0.000000 0.000000 -1.014853 -1.092719 -0.193757 3.541688 8.906816 -1.246023 6.899420 -0.377873 1.245753 2.336109 0.113782 0.787937 0.000000 0.000000 0.000000 0.452687 -0.144252 -0.294273 -1.566104 -0.167780 -0.183409 0.000000 0.000000 0.000000 -0.085070 -0.173605 -0.330881 -0.479986 -6.522003 -8.245905 4.685317 -0.771514 -59.228996 4.208124 -31.084782 -6.082343 0.000000 0.000000 0.000000 0.938178 -0.264315 -0.156670 -0.367594 6.955571 5.530492 14.417317 8.513895 52.134369 8.950505 39.328021 2.230759 0.000000 0.000000 0.000000 
1.273350 93.835938 2.408781 0.000000 0.000000 0.000000 11.397151 -2.531245 -1.960894 -25.228496 11.779176 13.889089 31.076920 -3.415806 -0.532590 -16.072463 -2.950351 -8.001548 0.000000 0.000000 0.000000 5.892342 6.496224 4.626495 -20.936369 -4.176397 -8.689605 28.733028 1.722939 -4.026735 -18.787219 -0.168322 5.073832 0.000000 0.000000 0.000000 -0.072720 -0.429522 0.476622 1.015862 11.489613 -2.586132 8.106944 -0.672696 0.545030 2.005421 -0.027865 0.930935 0.000000 0.000000 0.000000 0.460679 -0.338584 -0.234654 -1.629506 -0.295551 -0.216593 0.000000 0.000000 0.000000 -0.466283 -0.027213 -0.169223 -0.660640 -7.924771 -8.553029 4.629052 -0.641125 -59.607457 4.539962 -29.554345 -6.163824 0.000000 0.000000 0.000000 0.699393 -0.243303 -0.309979 -0.138297 6.319684 4.948328 15.524818 7.639169 53.137038 8.767607 35.575751 2.591910 0.000000 0.000000 0.000000 
1.139330 94.164154 2.811384 0.000000 0.000000 0.000000 11.470680 -3.946738 -2.380468 -25.137241 11.611036 13.243923 30.780890 -3.079577 -0.365090 -16.502558 -2.651937 -7.561486 0.000000 0.000000 0.000000 6.003732 6.715405 5.036842 -20.644216 -4.216359 -8.151422 29.624091 1.613551 -4.423814 -18.155112 -0.007177 4.355896 0.000000 0.000000 0.000000 -0.986751 0.373010 -0.028522 2.474215 11.490394 -2.340299 7.833479 -1.230979 1.289724 2.577936 0.117166 0.746117 0.000000 0.000000 0.000000 0.153500 -0.432463 -0.163640 -1.725218 -0.350004 -0.208405 0.000000 0.000000 0.000000 -0.212902 -0.306024 -0.245433 -0.774542 -7.343174 -8.244603 5.627942 -0.555496 -60.390518 4.670458 -29.096189 -6.584839 0.000000 0.000000 0.000000 0.238821 -0.094452 -0.311648 -0.892745 6.638532 5.975911 15.685126 7.031383 53.815197 8.923534 35.841875 2.934724 0.000000 0.000000 0.000000 
1.517159 94.603325 2.213802 0.000000 0.000000 0.000000 11.706401 -3.581784 -2.263489 -24.402495 11.660268 13.228479 29.874117 -2.791788 -0.393374 -17.151083 -2.313606 -7.418965 0.000000 0.000000 0.000000 6.097370 7.464911 4.998971 -20.460651 -4.036138 -8.080202 29.583130 2.112435 -4.209146 -18.373480 0.348353 5.050952 0.000000 0.000000 0.000000 0.602735 0.704471 -0.080746 1.050358 10.079287 -1.526805 9.198568 -0.885320 0.744845 2.470377 0.100944 0.942742 0.000000 0.000000 0.000000 0.280845 -0.336071 -0.147036 -1.829284 -0.194590 -0.221798 0.000000 0.000000 0.000000 0.133439 -0.337840 0.053284 -0.520265 -6.773700 -7.946122 7.090626 -0.847502 -58.777063 5.331959 -28.161087 -6.126628 0.000000 0.000000 0.000000 -0.125387 -0.091639 -0.093399 -0.915197 7.402933 5.923921 15.055832 7.196607 53.924012 8.541499 38.503528 2.991640 0.000000 0.000000 0.000000 
1.420986 94.497398 2.351055 0.000000 0.000000 0.000000 12.358847 -3.081978 -2.480760 -23.637997 11.988117 13.064763 29.918995 -2.920575 -0.446040 -17.183421 -2.397129 -7.591366 0.000000 0.000000 0.000000 6.913892 7.665044 4.987402 -19.383804 -4.091379 -8.032348 29.054966 2.304776 -4.119347 -18.901241 0.434931 5.300277 0.000000 0.000000 0.000000 -1.593120 -1.910491 0.455908 0.157800 12.990727 -0.464979 8.235904 -1.350031 0.808333 2.973623 0.385705 0.968921 0.000000 0.000000 0.000000 0.585356 -0.032876 -0.089165 -1.325027 -0.149755 -0.230254 0.000000 0.000000 0.000000 -0.551306 -0.119893 -0.032823 -0.698395 -6.393367 -7.831922 6.378196 0.551556 -59.274171 5.297355 -28.160581 -6.247531 0.000000 0.000000 0.000000 0.022989 0.004100 -0.177048 -0.619384 7.062745 5.449602 15.399490 8.414350 55.286382 9.569514 36.552994 3.301370 0.000000 0.000000 0.000000 
1.238033 94.697739 3.504354 0.000000 0.000000 0.000000 12.555635 -3.141017 -2.427325 -23.434034 11.999238 13.129363 29.516454 -2.857895 -0.393574 -17.477858 -2.340556 -7.487297 0.000000 0.000000 0.000000 7.075462 7.622285 5.087889 -19.146226 -4.125154 -7.886393 28.966877 2.623653 -3.941199 -19.009161 0.646483 5.768359 0.000000 0.000000 0.000000 -1.285640 -0.675230 0.542976 -1.262170 13.269883 0.013123 8.190259 -0.900743 0.795700 3.389006 -0.202306 0.964417 0.000000 0.000000 0.000000 0.812884 -0.166144 -0.085190 -1.376690 -0.238328 -0.306531 0.000000 0.000000 0.000000 -0.513153 -0.263346 0.044506 -0.800921 -8.079492 -7.659401 6.729509 -0.704535 -60.017528 5.089385 -30.060096 -7.062574 0.000000 0.000000 0.000000 -0.219314 -0.119248 -0.185130 -0.779048 5.436488 5.761633 16.367884 7.436709 55.748701 9.414150 35.002780 3.678629 0.000000 0.000000 0.000000 
2.048170 94.587021 3.478579 0.000000 0.000000 0.000000 12.586688 -1.829944 -2.285248 -23.470699 12.249782 13.521480 29.730328 -2.755684 -0.589189 -17.267246 -2.114757 -7.760431 0.000000 0.000000 0.000000 6.555289 6.538222 4.692897 -19.960454 -4.290244 -8.445329 30.050128 2.526378 -3.996456 -18.166297 0.689833 5.647465 0.000000 0.000000 0.000000 -1.104826 -2.234836 0.425566 -0.379242 15.119071 -0.127405 8.774444 -0.597622 1.337407 2.871912 0.006590 0.914716 0.000000 0.000000 0.000000 0.738831 -0.107524 0.097613 -1.436318 -0.283954 -0.126882 0.000000 0.000000 0.000000 -0.579893 -0.502826 0.147068 -1.057619 -8.228938 -7.194262 6.478269 1.263236 -60.133361 4.308980 -29.756395 -7.066330 0.000000 0.000000 0.000000 -0.012856 0.223601 -0.321891 -1.239329 6.395416 5.907299 17.225418 8.199409 55.393941 9.983980 36.660815 3.432084 0.000000 0.000000 0.000000 
